<?xml version="1.0" encoding="iso-8859-1"?>
<!-- Generator: Adobe Illustrator 19.0.0, SVG Export Plug-In . SVG Version: 6.00 Build 0)  -->
<svg xmlns="http://www.w3.org/2000/svg" xmlns:xlink="http://www.w3.org/1999/xlink" version="1.1" id="Capa_1" x="0px" y="0px" viewBox="0 0 448.512 448.512" style="enable-background:new 0 0 448.512 448.512;" xml:space="preserve" width="512px" height="512px">
<g>
	<g>
		<path d="M276.224,84.992c-5.632-5.632-11.264-8.192-14.848-10.24c-6.144-3.072-7.68-4.096-7.68-13.824v-9.216    c6.144-0.512,11.264-5.632,11.264-12.288V12.288C264.96,5.632,259.328,0,252.672,0h-52.224c-6.656,0-12.288,5.632-12.288,12.288    v27.648c0,5.632,4.096,10.752,9.216,11.776v7.168c0,10.752-2.048,11.776-8.704,15.36c-4.096,2.048-8.704,4.608-14.336,9.728    c-16.384,14.336-25.6,35.328-25.6,56.832v276.48c0,0.512-0.512,1.024-0.512,2.048c0.512,16.384,13.312,29.184,29.184,29.184    c9.728,0,18.432-5.12,23.552-12.288c5.12,7.68,13.824,12.288,23.552,12.288s18.432-5.12,23.552-12.288    c5.12,7.68,13.824,12.288,23.552,12.288c15.872,0,28.672-12.8,28.672-28.672V140.8C300.288,119.808,291.584,99.328,276.224,84.992    z M243.968,10.24h9.216c1.024,0,2.048,1.024,2.048,2.048v27.648c0,1.024-1.024,2.048-2.048,2.048h-9.216V10.24z M220.416,10.24    h13.312v31.744h-13.312V10.24z M198.4,12.288c0-1.024,1.024-2.048,2.048-2.048h9.728v31.744h-9.728    c-1.024,0-2.048-1.024-2.048-2.048V12.288z M159.488,141.312c0-18.944,7.68-36.864,22.016-49.152    c4.608-4.096,8.704-6.656,12.288-8.192c8.704-4.608,13.824-8.192,13.824-24.576v-6.656h35.84v9.216    c0,15.36,5.12,18.944,13.312,23.04c3.584,2.048,7.68,4.096,12.8,8.192c13.312,12.288,20.992,29.696,20.992,48.128v3.072H159.488    V141.312z M159.488,154.624h131.584V345.6H159.488V154.624z M291.584,419.328c-0.512,10.752-9.216,18.944-19.456,18.944    c-10.24,0-18.432-8.192-18.432-18.432c0-3.072-2.048-5.12-5.12-5.12c-3.072,0-5.12,2.048-5.12,5.12    c0,10.24-8.192,18.432-18.432,18.432s-18.432-8.192-18.432-18.432c0-3.072-2.048-5.12-5.12-5.12c-3.072,0-5.12,2.048-5.12,5.12    c0,10.24-8.192,18.432-18.432,18.432c-9.728,0-17.408-7.168-18.432-16.896c0-0.512,0.512-1.024,0.512-1.536v-64h131.584V419.328z" fill="#FFFFFF"/>
	</g>
</g>
<g>
</g>
<g>
</g>
<g>
</g>
<g>
</g>
<g>
</g>
<g>
</g>
<g>
</g>
<g>
</g>
<g>
</g>
<g>
</g>
<g>
</g>
<g>
</g>
<g>
</g>
<g>
</g>
<g>
</g>
</svg>
